<?xml version="1.0" encoding="utf-8"?>
<!-- Svg Vector Icons : http://www.onlinewebfonts.com/icon -->
<!DOCTYPE svg PUBLIC "-//W3C//DTD SVG 1.1//EN" "http://www.w3.org/Graphics/SVG/1.1/DTD/svg11.dtd">
<svg version="1.1" xmlns="http://www.w3.org/2000/svg" xmlns:xlink="http://www.w3.org/1999/xlink" x="0px" y="0px" viewBox="0 0 1000 1000" enable-background="new 0 0 1000 1000" xml:space="preserve">
<metadata> Svg Vector Icons : http://www.onlinewebfonts.com/icon </metadata>
<g><g transform="translate(0.000000,511.000000) scale(0.100000,-0.100000)"><path d="M8297.7,4005.7c-23.1-19.2-829-1402.3-936.8-1606.2c-30.8-59.6-11.5-92.3,84.6-150c92.3-53.9,148.1-61.6,178.9-23.1c65.4,78.9,927.2,1602.3,927.2,1638.9c0,34.6-25,59.6-103.9,103.9C8328.5,4038.4,8336.1,4036.5,8297.7,4005.7z"/><path d="M5477.8,3151.7c-144.3-38.5,84.6,94.3-2604.5-1502.3l-205.8-121.2h-707.9c-817.5,0-879.1-7.7-1159.9-146.2c-253.9-127-444.3-317.4-565.5-569.4c-46.2-98.1-96.2-227-109.6-284.7C88,381.8,93.7,66.3,132.2-87.6c94.3-361.6,348.2-675.2,677.1-834.8c261.6-128.9,286.6-132.7,1123.4-140.4l756-9.6l1331.1-786.7c859.8-511.7,1365.7-798.2,1435-819.4c213.5-61.6,479-25,692.5,96.2c150,84.6,388.6,321.2,511.7,504c277,417.4,469.4,982.9,557.8,1644.6c44.3,330.9,44.3,1000.2,0,1327.2c-69.2,509.7-194.3,959.8-363.5,1311.9C6504.9,2920.8,5976,3286.3,5477.8,3151.7z M5864.4,2432.3c573.2-282.8,950.2-1252.2,911.8-2344.8c-23.1-642.5-169.3-1181.1-432.8-1592.7c-115.4-177-315.5-375.1-455.9-452c-532.8-284.7-1111.8,130.8-1402.3,1006c-411.6,1234.9-96.2,2856.5,646.3,3331.6c163.5,105.8,252,130.8,438.6,123.1C5710.5,2497.7,5752.8,2488,5864.4,2432.3z"/><path d="M4983.4,1120.4c-26.9-80.8-71.2-386.6-86.6-623.2c-13.5-184.7-13.5-355.9,0-532.8c19.2-246.2,65.4-577.1,88.5-611.7c15.4-26.9,134.6-21.2,265.4,13.5c417.4,107.7,721.3,469.3,723.3,863.7c0,294.3-155.8,565.5-432.8,744.4C5372,1083.9,5004.6,1180,4983.4,1120.4z"/><path d="M8557.4,1812.9c-609.8-350.1-815.6-479-825.2-509.7c-17.3-67.3,88.5-227,150-227c63.5,0,1646.6,911.8,1661.9,957.9c15.4,46.2-92.3,232.8-138.5,240.4C9384.5,2276.5,9003.6,2068.7,8557.4,1812.9z"/><path d="M7916.8,356.8c-30.8-59.6-23.1-225.1,11.5-259.7c26.9-26.9,140.4-30.8,969.5-30.8c1065.7,0,1000.2-9.6,1000.2,155.8c0,186.6,92.3,171.2-1000.2,171.2C7968.7,393.3,7936,391.4,7916.8,356.8z"/><path d="M7836-612.7c-13.5-15.4-48.1-67.3-73.1-117.3c-34.6-65.4-42.3-96.2-28.9-119.3c25-38.5,1602.3-950.2,1654.3-956c46.2-3.9,167.4,167.3,159.6,225c-5.8,38.5-167.4,136.6-1304.2,788.7C7870.6-576.2,7872.6-578.1,7836-612.7z"/><path d="M1419.1-2418.9c5.8-1054.1,7.7-1084.9,46.2-1169.5c82.7-177,178.9-217.4,509.7-217.4c217.4-1.9,250.1,3.9,336.6,46.2c109.6,53.9,169.3,134.6,198.1,269.3c13.5,61.6,21.2,463.6,21.2,1123.4v1029.1h-559.8h-557.8L1419.1-2418.9z"/><path d="M7445.5-1786.1c-51.9-32.7-98.1-75-100-90.4c-7.7-38.5,917.5-1635,961.8-1662c51.9-32.7,244.3,73.1,244.3,136.6c0,44.2-879.1,1594.6-936.8,1652.3C7574.4-1711.1,7553.3-1714.9,7445.5-1786.1z"/></g></g>
</svg>