<svg xmlns="http://www.w3.org/2000/svg" data-name="Layer 1" viewBox="0 0 29 29"><path d="M13.19629,6H6.80371a.7502.7502,0,0,0-.75.75v6.5a.7502.7502,0,0,0,.75.75h6.39258a.7502.7502,0,0,0,.75-.75V6.75A.7502.7502,0,0,0,13.19629,6Zm-.75,6.5H7.55371v-5h4.89258ZM11,9H9v2h2ZM3,12a.99974.99974,0,0,0,1-1V5A1.001,1.001,0,0,1,5,4h6a1,1,0,0,0,0-2H5A3.00328,3.00328,0,0,0,2,5v6A.99974.99974,0,0,0,3,12Zm10.19629,3H6.80371a.7502.7502,0,0,0-.75.75v6.5a.7502.7502,0,0,0,.75.75h6.39258a.7502.7502,0,0,0,.75-.75v-6.5A.7502.7502,0,0,0,13.19629,15Zm-.75,6.5H7.55371v-5h4.89258ZM11,18H9v2h2Zm0,7H5a1.001,1.001,0,0,1-1-1V18a1,1,0,0,0-2,0v6a3.00328,3.00328,0,0,0,3,3h6a1,1,0,0,0,0-2Zm15-8a.99974.99974,0,0,0-1,1v6a1.001,1.001,0,0,1-1,1H18a1,1,0,0,0,0,2h6a3.00328,3.00328,0,0,0,3-3V18A.99974.99974,0,0,0,26,17Zm-8.5,3.5h-2v2h2Zm-2-3.00555h2v-2h-2ZM24,2H18a1,1,0,0,0,0,2h6a1.001,1.001,0,0,1,1,1v6a1,1,0,0,0,2,0V5A3.00328,3.00328,0,0,0,24,2Zm-6,9h2V9H18Zm2,9V18H18v2Zm2.19629-6a.7502.7502,0,0,0,.75-.75V6.75a.7502.7502,0,0,0-.75-.75H15.80371a.7502.7502,0,0,0-.75.75v6.5a.7502.7502,0,0,0,.75.75ZM16.55371,7.5h4.89258v5H16.55371ZM22.5,15.49445h-2v2h2ZM20.5,22.5h2v-2h-2Z"/></svg>